<svg width="103" height="120" viewBox="0 0 103 120" fill="none" xmlns="http://www.w3.org/2000/svg">
<g clip-path="url(#clip0_3507_4130)">
<path d="M25.5416 29.9244L0 45.0378L51.0831 74.9622L76.6247 60L25.5416 29.9244Z" fill="#62D4F9"/>
<path d="M25.5416 0L0 14.9622L76.6247 60L102.015 45.0378L25.5416 0Z" fill="#E16BFC"/>
<path d="M76.6247 60L51.0831 74.9622V104.887L76.6247 89.9244V60Z" fill="#35A6E7"/>
<path d="M102.015 45.0378L76.6246 60V89.9244L102.015 74.9622V45.0378Z" fill="#9119F6"/>
<path d="M51.0831 74.9622L25.5416 90.0756L0 74.9622V105.038L25.5416 120L51.0831 104.887V74.9622Z" fill="#2163DF"/>
<path d="M0 74.9622L25.5416 60L51.0831 74.9622L25.5416 90.0756L0 74.9622Z" fill="#248AE3"/>
<path d="M0 45.0378V74.9622L25.5416 60L0 45.0378Z" fill="#35A6E7"/>
<path d="M0 14.9622V45.0378L25.5416 29.9244L0 14.9622Z" fill="#9119F6"/>
</g>
<defs>
<clipPath id="clip0_3507_4130">
<rect width="102.015" height="120" fill="white"/>
</clipPath>
</defs>
</svg>
